<mxfile host="app.diagrams.net" modified="2021-11-21T13:18:46.180Z" agent="5.0 (Windows NT 10.0; Win64; x64) AppleWebKit/537.36 (KHTML, like Gecko) Chrome/96.0.4664.45 Safari/537.36" etag="k92-p48P7FGZyDf74pC_" version="15.8.3" type="github">
  <diagram id="tZMxXyEEJOeB-0z-ZRVT" name="Page-1">
    <mxGraphModel dx="1422" dy="762" grid="1" gridSize="10" guides="1" tooltips="1" connect="1" arrows="1" fold="1" page="1" pageScale="1" pageWidth="827" pageHeight="1169" math="0" shadow="0">
      <root>
        <mxCell id="0" />
        <mxCell id="1" parent="0" />
        <mxCell id="sngavp8AJ_Z4mAFyRSde-1" value="a" style="whiteSpace=wrap;html=1;" vertex="1" parent="1">
          <mxGeometry x="394" y="30" width="40" height="40" as="geometry" />
        </mxCell>
        <mxCell id="sngavp8AJ_Z4mAFyRSde-2" value="Leap" style="whiteSpace=wrap;html=1;" vertex="1" parent="1">
          <mxGeometry x="300" y="120" width="40" height="40" as="geometry" />
        </mxCell>
        <mxCell id="sngavp8AJ_Z4mAFyRSde-3" value="No Leap" style="whiteSpace=wrap;html=1;" vertex="1" parent="1">
          <mxGeometry x="610" y="110" width="40" height="50" as="geometry" />
        </mxCell>
        <mxCell id="sngavp8AJ_Z4mAFyRSde-5" value="" style="endArrow=none;html=1;rounded=0;shape=arrow;" edge="1" parent="1">
          <mxGeometry width="50" height="50" relative="1" as="geometry">
            <mxPoint x="390" y="70" as="sourcePoint" />
            <mxPoint x="330" y="110" as="targetPoint" />
          </mxGeometry>
        </mxCell>
        <mxCell id="sngavp8AJ_Z4mAFyRSde-6" value="" style="endArrow=none;html=1;rounded=0;shape=arrow;" edge="1" parent="1">
          <mxGeometry width="50" height="50" relative="1" as="geometry">
            <mxPoint x="440" y="70" as="sourcePoint" />
            <mxPoint x="600" y="100" as="targetPoint" />
          </mxGeometry>
        </mxCell>
        <mxCell id="sngavp8AJ_Z4mAFyRSde-7" value="/4" style="ellipse;whiteSpace=wrap;html=1;" vertex="1" parent="1">
          <mxGeometry x="389" y="80" width="50" height="40" as="geometry" />
        </mxCell>
        <mxCell id="sngavp8AJ_Z4mAFyRSde-8" style="edgeStyle=none;shape=arrow;rounded=0;orthogonalLoop=1;jettySize=auto;html=1;exitX=0;exitY=0.5;exitDx=0;exitDy=0;" edge="1" parent="1" source="sngavp8AJ_Z4mAFyRSde-7" target="sngavp8AJ_Z4mAFyRSde-7">
          <mxGeometry relative="1" as="geometry" />
        </mxCell>
        <mxCell id="sngavp8AJ_Z4mAFyRSde-9" value="NO /100" style="ellipse;whiteSpace=wrap;html=1;" vertex="1" parent="1">
          <mxGeometry x="295" y="200" width="50" height="40" as="geometry" />
        </mxCell>
        <mxCell id="sngavp8AJ_Z4mAFyRSde-10" value="" style="endArrow=none;html=1;rounded=0;shape=arrow;" edge="1" parent="1">
          <mxGeometry width="50" height="50" relative="1" as="geometry">
            <mxPoint x="290" y="170" as="sourcePoint" />
            <mxPoint x="230" y="210" as="targetPoint" />
          </mxGeometry>
        </mxCell>
        <mxCell id="sngavp8AJ_Z4mAFyRSde-11" value="" style="endArrow=none;html=1;rounded=0;shape=arrow;" edge="1" parent="1">
          <mxGeometry width="50" height="50" relative="1" as="geometry">
            <mxPoint x="350" y="160" as="sourcePoint" />
            <mxPoint x="421" y="220" as="targetPoint" />
          </mxGeometry>
        </mxCell>
        <mxCell id="sngavp8AJ_Z4mAFyRSde-12" value="Leap" style="whiteSpace=wrap;html=1;" vertex="1" parent="1">
          <mxGeometry x="190" y="220" width="40" height="40" as="geometry" />
        </mxCell>
        <mxCell id="sngavp8AJ_Z4mAFyRSde-13" value="No Leap" style="whiteSpace=wrap;html=1;" vertex="1" parent="1">
          <mxGeometry x="434" y="210" width="40" height="50" as="geometry" />
        </mxCell>
        <mxCell id="sngavp8AJ_Z4mAFyRSde-14" value="/400" style="ellipse;whiteSpace=wrap;html=1;" vertex="1" parent="1">
          <mxGeometry x="190" y="290" width="50" height="40" as="geometry" />
        </mxCell>
        <mxCell id="sngavp8AJ_Z4mAFyRSde-15" value="Leap" style="whiteSpace=wrap;html=1;" vertex="1" parent="1">
          <mxGeometry x="120" y="360" width="40" height="40" as="geometry" />
        </mxCell>
        <mxCell id="sngavp8AJ_Z4mAFyRSde-16" value="No Leap" style="whiteSpace=wrap;html=1;" vertex="1" parent="1">
          <mxGeometry x="295" y="350" width="40" height="50" as="geometry" />
        </mxCell>
        <mxCell id="sngavp8AJ_Z4mAFyRSde-17" value="" style="endArrow=none;html=1;rounded=0;shape=arrow;" edge="1" parent="1">
          <mxGeometry width="50" height="50" relative="1" as="geometry">
            <mxPoint x="190" y="270" as="sourcePoint" />
            <mxPoint x="130" y="310" as="targetPoint" />
          </mxGeometry>
        </mxCell>
        <mxCell id="sngavp8AJ_Z4mAFyRSde-18" value="" style="endArrow=none;html=1;rounded=0;shape=arrow;" edge="1" parent="1">
          <mxGeometry width="50" height="50" relative="1" as="geometry">
            <mxPoint x="255" y="270" as="sourcePoint" />
            <mxPoint x="300" y="330" as="targetPoint" />
          </mxGeometry>
        </mxCell>
      </root>
    </mxGraphModel>
  </diagram>
</mxfile>
